<svg width="64" height="54" viewBox="0 0 64 54" fill="none" xmlns="http://www.w3.org/2000/svg">
<path d="M32 18.3596V51M32 18.3596C32 12.983 32 10.2958 33.0536 8.24226C33.9804 6.43588 35.4581 4.96675 37.277 4.04635C39.3448 3 42.0522 3 47.466 3H55.8438C57.6484 3 58.5514 3 59.2406 3.34878C59.8469 3.65558 60.3386 4.14477 60.6476 4.7469C60.9988 5.43142 61 6.32819 61 8.12038V36.2807C61 38.0729 60.9988 38.9678 60.6476 39.6523C60.3386 40.2544 59.848 40.7453 59.2417 41.0521C58.5531 41.4005 57.6521 41.4005 55.851 41.4005H46.7234C43.6971 41.4005 42.1811 41.4005 40.8076 41.8148C39.5916 42.1815 38.4627 42.782 37.4809 43.5833C36.372 44.4885 35.5316 45.7389 33.8529 48.2397L32 51M32 18.3596C32 12.983 31.9995 10.2958 30.9459 8.24226C30.0191 6.43588 28.5402 4.96675 26.7213 4.04635C24.6535 3 21.9459 3 16.5321 3H8.1543C6.34968 3 5.44828 3 4.75901 3.34878C4.15271 3.65558 3.66013 4.14477 3.3512 4.7469C3 5.43142 3 6.32819 3 8.12038V36.2807C3 38.0729 3 38.9678 3.3512 39.6523C3.66013 40.2544 4.15271 40.7453 4.75901 41.0521C5.4476 41.4005 6.34792 41.4005 8.149 41.4005H17.2768C20.3031 41.4005 21.8159 41.4005 23.1894 41.8148C24.4054 42.1815 25.5398 42.782 26.5216 43.5833C27.6261 44.4849 28.4611 45.7288 30.1262 48.2093L32 51" stroke="#FFE0CA" stroke-width="5" stroke-linecap="round" stroke-linejoin="round"/>
</svg>
