<svg width="20" height="22" viewBox="0 0 20 22" fill="none" xmlns="http://www.w3.org/2000/svg">
<path d="M4 5V16.8C4 17.9201 4 18.4798 4.21799 18.9076C4.40973 19.2839 4.71547 19.5905 5.0918 19.7822C5.5192 20 6.07899 20 7.19691 20H12.8031C13.921 20 14.48 20 14.9074 19.7822C15.2837 19.5905 15.5905 19.2839 15.7822 18.9076C16 18.4802 16 17.921 16 16.8031V5M4 5H6M4 5H2M6 5H14M6 5C6 4.06812 6 3.60241 6.15224 3.23486C6.35523 2.74481 6.74432 2.35523 7.23438 2.15224C7.60192 2 8.06812 2 9 2H11C11.9319 2 12.3978 2 12.7654 2.15224C13.2554 2.35523 13.6447 2.74481 13.8477 3.23486C13.9999 3.6024 14 4.06812 14 5M14 5H16M16 5H18" stroke="#C7A1D7" stroke-width="3" stroke-linecap="round" stroke-linejoin="round"/>
</svg>
