<svg width="20" height="20" viewBox="0 0 20 20" fill="none" xmlns="http://www.w3.org/2000/svg">
<path d="M10 5.58605L2 13.5861V17.5861L6 17.586L14 9.58604M10 5.58605L12.8686 2.7174L12.8704 2.7157C13.2652 2.32082 13.463 2.12303 13.691 2.04894C13.8919 1.98369 14.1082 1.98369 14.3091 2.04894C14.5369 2.12297 14.7345 2.32054 15.1288 2.71486L16.8686 4.45466C17.2646 4.85067 17.4627 5.04878 17.5369 5.2771C17.6022 5.47795 17.6021 5.69429 17.5369 5.89513C17.4628 6.1233 17.265 6.3211 16.8695 6.71655L16.8686 6.7174L14 9.58604M10 5.58605L14 9.58604" stroke="#FFF6EA" stroke-width="3" stroke-linecap="round" stroke-linejoin="round"/>
</svg>
